<svg width="392" height="160" viewBox="0 0 392 160" fill="none" xmlns="http://www.w3.org/2000/svg">
<path d="M228.474 145.441C229.823 142.767 230.547 140.098 231.626 136.633L234.329 137.128C233.876 143.165 233.428 147.916 232.438 153.754C226.942 157.316 220.19 159 212.893 159C195.421 159 177.856 146.63 177.856 122.579C177.856 100.805 193.796 86.5523 212.8 86.5523C220.453 86.5523 226.667 88.2361 232.704 91.502C232.793 94.1757 232.886 96.4517 232.886 98.7278C232.886 101.004 232.797 103.381 232.704 106.152L230.001 106.351C229.193 102.688 228.199 99.5231 226.13 96.8494C223.609 93.6807 219.463 91.1086 212.893 91.1086C197.041 91.1086 186.325 103.876 186.325 122.482C186.325 142.674 200.104 154.549 214.065 154.549C221.54 154.549 225.322 151.677 228.474 145.445V145.441Z" fill="white" stroke="#1A0C6D" stroke-width="0.5" stroke-miterlimit="10"/>
<path d="M249.956 138.215C249.956 141.283 249.956 145.043 250.155 148.111C250.451 152.168 251.043 153.75 254.707 155.235L254.411 157.511C250.946 157.215 248.772 157.215 246.491 157.215C244.211 157.215 242.037 157.215 238.572 157.511L238.276 155.235C241.939 153.75 242.434 152.168 242.731 148.111C243.027 145.043 243.027 141.283 243.027 138.215V106.939C243.027 103.872 243.027 100.805 242.731 97.7336C242.434 93.6765 241.444 92.7839 237.882 92.0943V89.9156C242.236 87.6395 244.613 86.1546 248.374 82.986L250.451 83.7771C250.252 90.5078 249.956 94.1672 249.956 101.693V138.215Z" fill="white" stroke="#1A0C6D" stroke-width="0.5" stroke-miterlimit="10"/>
<path d="M279.748 111.724C292.418 111.724 301.818 121.919 301.818 135.081C301.818 148.242 292.219 158.437 280.243 158.437C267.276 158.437 257.774 148.242 257.774 135.081C257.774 121.919 267.572 111.724 279.748 111.724ZM265.893 134.192C265.893 146.567 271.832 153.691 280.539 153.691C288.162 153.691 293.704 147.256 293.704 135.677C293.704 124.098 287.57 116.28 279.451 116.28C271.93 116.28 265.893 122.419 265.893 134.196V134.192Z" fill="white" stroke="#1A0C6D" stroke-width="0.5" stroke-miterlimit="10"/>
<path d="M338.738 113.238C338.738 116.306 338.738 119.077 339.034 122.148C339.33 126.205 340.32 127.098 343.882 127.787V129.864C339.825 131.747 337.647 133.329 334.58 136.003L332.502 135.508L332.206 126.404L332.109 126.307C329.736 131.751 324.684 136.007 318.749 136.007C313.901 136.007 309.941 134.027 307.563 130.169C306.277 127.893 305.584 125.122 305.584 121.162V110.374C305.584 107.307 305.584 104.139 305.287 101.071C304.89 97.0144 303.705 95.3306 300.536 93.8457L300.833 91.667C305.089 91.5697 308.947 91.4682 313.203 91.172C312.907 97.9028 312.509 101.368 312.509 108.987V120.27C312.509 126.603 315.678 129.572 320.327 129.572C327.451 129.572 331.809 124.525 331.809 117.3V110.37C331.809 107.303 331.809 104.134 331.512 101.067C331.216 97.0101 329.93 95.3264 326.762 93.8415L327.058 91.6628C331.314 91.5655 335.176 91.4639 339.428 91.1678C339.132 97.8985 338.734 101.363 338.734 108.983V113.238H338.738Z" fill="white" stroke="#1A0C6D" stroke-width="0.5" stroke-miterlimit="10"/>
<path d="M385.553 113.81C385.553 116.877 385.553 119.648 385.849 122.719C386.145 126.776 387.135 127.669 390.697 128.358V130.435C386.64 132.314 384.462 133.9 381.394 136.57L379.317 136.075L378.92 127.66L378.822 127.563C376.149 132.513 371.004 136.57 365.957 136.57C355.96 136.57 346.755 128.354 346.755 113.805C346.755 99.2565 356.752 89.8563 367.341 89.8563C371.893 89.8563 375.654 90.9436 378.623 93.1223V84.5132C378.623 81.446 378.623 78.3789 378.327 75.3075C378.031 71.2505 377.041 70.3578 373.479 69.6683V67.4895C377.832 65.2135 380.21 63.7286 383.971 60.5599L386.048 61.351C385.849 68.0818 385.553 71.7412 385.553 79.2673V113.81ZM353.981 111.335C353.981 123.51 360.119 130.237 367.937 130.237C374.566 130.237 378.623 125.685 378.623 118.556V108.263C378.623 97.9705 372.388 94.3068 366.549 94.3068C360.314 94.3068 353.981 99.7515 353.981 111.33V111.335Z" fill="white" stroke="#1A0C6D" stroke-width="0.5" stroke-miterlimit="10"/>
<path d="M182.818 68.9068C182.479 73.7465 181.722 76.1875 177.305 77.9559L177.644 80.693C181.938 80.3546 184.925 80.3546 190.314 80.3546C204.457 80.3546 214.517 80.4815 222.559 80.9003C223.782 75.1764 224.662 69.7444 225.212 63.1363L222.225 62.5906C220.795 66.6731 219.699 68.9872 218.354 71.0939C216.713 73.4081 214.944 74.9649 211.073 75.5148C208.087 75.976 204.338 76.0606 199.372 76.0606C194.405 76.0606 192.51 75.0918 192.298 69.664C192.171 67.4769 191.96 61.4991 191.96 57.624V42.7241C195.623 42.7241 203.45 42.851 206.987 43.2698C211.953 43.9425 213.51 45.5839 215.152 50.6774L217.804 50.1317C217.466 45.8377 217.466 43.2698 217.466 40.5326C217.466 37.7955 217.466 35.3545 217.804 31.0605L215.152 30.5148C213.51 35.6083 211.953 37.3767 206.987 37.9224C203.45 38.2609 195.746 38.4682 191.96 38.4682V24.3678C191.96 20.4123 191.96 16.4102 192.298 13.0046C192.637 8.58374 193.267 7.69956 198.488 7.69956C203.708 7.69956 205.223 7.82648 208.002 8.2453C210.105 8.58374 212.63 9.46792 214.314 11.232C215.955 13.0004 217.178 15.3145 218.608 19.397L221.806 18.8512C221.468 12.7889 221.049 8.70643 220.249 3.06714C215.955 3.40558 212.503 3.40558 208.002 3.40558H187.67C184.891 3.40558 181.946 3.40558 177.61 3.06714L177.271 5.84659C181.692 7.61495 182.45 10.056 182.784 14.8957C183.122 18.517 183.122 23.399 183.122 27.27V56.6086C183.122 60.4796 183.122 65.3235 182.784 68.9829L182.826 68.8983L182.818 68.9068Z" fill="white"/>
<path d="M238.424 46.2185L231.816 64.5282C229.163 71.682 228.406 74.1272 228.406 76.6528C228.406 79.1785 230.593 81.7041 233.161 81.7041C237.032 81.7041 242.125 78.6327 247.976 67.2653L245.789 65.7085C240.357 73.4123 238.17 74.6306 236.952 74.6306C235.733 74.6306 235.856 74.0849 235.856 73.5349C235.856 72.985 236.067 72.2319 237.286 68.9067L244.482 48.6172C246.123 44.0693 247.892 39.2296 247.892 35.6929C247.892 32.1562 245.789 30.3032 243.471 30.3032C239.807 30.3032 235.306 34.5126 228.99 43.6463L231.092 45.5416C236.186 39.5638 238.373 37.8378 239.469 37.8378C240.564 37.8378 240.353 38.1762 240.353 38.8489C240.353 39.9446 240.014 42.0472 238.458 46.2565L238.415 46.2142L238.424 46.2185Z" fill="white"/>
<path d="M246.927 11.7016C250.252 11.7016 252.778 9.176 252.778 5.85081C252.778 2.52562 250.252 0 246.927 0C243.602 0 241.076 2.52562 241.076 5.85081C241.076 9.176 243.602 11.7016 246.927 11.7016Z" fill="white"/>
<path d="M295.544 64.6551C295.544 56.3632 290.366 50.0048 279.633 49.6706L266.29 49.2094C261.324 48.9979 258.798 46.8953 258.798 43.6971C258.798 40.4988 259.555 38.6458 263.007 35.9933C266.206 38.6458 269.869 40.0757 274.836 40.0757C284.558 40.0757 292.515 32.3719 292.515 21.5545C292.515 10.737 291.547 13.7238 288.852 10.737H299.208L300.092 6.65459L299.208 4.75932C295.337 5.09776 291.462 5.22044 288.725 5.22044C282.413 5.22044 280.767 3.03326 274.371 3.03326C264.649 3.03326 256.353 11.1982 256.353 21.5545C256.353 31.9108 257.575 29.8463 260.101 33.2561C254.462 37.5501 252.482 41.971 252.482 46.265C252.482 50.559 255.68 55.1025 260.439 56.7482C254.128 61.0422 251.602 65.1247 251.602 70.3028C251.602 77.7951 257.914 83.3117 270.377 83.3117C282.84 83.3117 295.549 74.5968 295.549 64.6635L295.544 64.6551ZM274.159 7.40763C280.221 7.40763 284.092 12.92 284.092 22.0579C284.092 31.1959 280.556 35.6125 274.789 35.6125C269.023 35.6125 264.856 30.519 264.856 20.8395C264.856 11.1601 268.727 7.36955 274.159 7.36955V7.41186V7.40763ZM272.141 77.1605C262.881 77.1605 258.798 73.205 258.798 68.4456C258.798 63.6863 260.355 61.3722 264.23 57.7551C268.778 58.0935 272.733 58.0935 277.7 58.0935C285.992 58.0935 289.529 61.4187 289.529 66.5969C289.529 71.775 284.9 77.1605 272.188 77.1605H272.145H272.141Z" fill="white"/>
<path d="M320.17 83.3456C329.976 83.3456 336.504 76.4837 339.829 68.2342L337.177 66.5927C332.629 73.0739 328.339 75.5149 321.266 75.5149C314.192 75.5149 305.566 67.8111 305.566 56.4479C305.566 45.0847 305.566 53.5839 305.778 52.2385H339.791C340.003 51.3544 340.003 50.5971 340.003 49.7129C340.003 39.107 331.922 31.2763 321.312 31.2763C307.631 31.2763 297.109 42.851 297.109 58.174C297.109 73.4969 306.286 83.3033 320.094 83.3033L320.179 83.3456H320.17ZM318.947 36.2429C325.137 36.2429 330.23 40.3254 330.311 47.8177H306.569C307.914 41.2942 312.208 36.2429 318.943 36.2429H318.947Z" fill="white"/>
<path d="M361.507 49.8398C357.424 48.1984 356.752 46.43 356.413 41.8822C356.202 38.4724 356.202 34.6015 356.202 31.1917V21.3853C356.202 14.3119 360.957 9.13794 368.576 9.13794C376.195 9.13794 378.175 13.3473 378.175 19.4943V31.1959C378.175 34.6057 378.175 38.4766 377.836 41.8864C377.498 46.4342 376.952 48.1603 372.87 49.844L373.208 52.3697C377.079 52.0312 379.52 52.0312 382.046 52.0312C384.571 52.0312 387.012 52.0312 390.883 52.3697L391.222 49.844C387.139 48.2026 386.467 46.4342 386.128 41.8864C385.917 38.4766 385.917 34.6057 385.917 31.1959V18.5255C385.917 14.1046 385.033 11.3717 383.603 8.80373C380.95 4.50975 376.407 1.94182 371.017 1.94182C365.627 1.94182 359.188 6.36272 356.202 11.9597L356.075 11.8328C356.202 9.05333 356.413 6.10889 356.747 2.57217L354.433 1.68799C350.562 5.22471 347.825 6.99306 342.732 9.39177V11.7059C346.729 12.4631 347.825 13.4742 348.164 17.9797C348.502 21.3895 348.502 24.9263 348.502 28.3361V31.1155C348.502 34.5253 348.502 38.3962 348.164 41.806C347.825 46.3539 347.279 48.0799 343.197 49.7637L343.535 52.2893C347.406 51.9508 349.847 51.9508 352.373 51.9508C354.899 51.9508 357.34 51.9508 361.21 52.2893L361.549 49.7637L361.507 49.8483V49.8398Z" fill="white"/>
<path d="M137.856 0.710693H118.175V40.1138H137.856V0.710693Z" fill="white"/>
<path d="M98.4908 0.710693H79.5423H78.7681H59.8619V20.3911H78.7681V79.4788H98.4908H118.175V40.1138H98.4908V0.710693Z" fill="white"/>
<path d="M59.0877 118.886H39.365V79.4788V0.710693H0V79.4788V158.289H39.365H59.0877H78.7681H98.4908H118.175V118.886H98.4908H78.7681V79.4788H59.0877V118.886Z" fill="white"/>
</svg>
